<svg width="100" height="101" viewBox="0 0 100 101" fill="none" xmlns="http://www.w3.org/2000/svg">
<g clip-path="url(#clip0_73_9)">
<path d="M99.5 50.2953C99.5 22.9572 77.3381 0.795319 50 0.795319C22.6619 0.795319 0.5 22.9572 0.5 50.2953C0.5 77.6334 22.6619 99.7953 50 99.7953C77.3381 99.7953 99.5 77.6334 99.5 50.2953Z" stroke="#212529"/>
<path d="M19.04 60.7953L12.32 44.1553H16.8L21.28 56.2353L25.76 44.1553H30.24L23.52 60.7953H19.04ZM31.9038 69.1153V52.4753C31.9038 47.6753 36.0638 43.7553 40.8638 43.7553C46.0638 43.7553 49.8238 47.2753 49.8238 52.4753C49.8238 57.2753 45.8238 61.1953 41.1037 61.1953C39.4238 61.1953 37.8238 60.7953 36.3838 59.7553V69.1153H31.9038ZM40.8638 57.0353C43.5038 57.0353 45.3438 55.0353 45.3438 52.4753C45.3438 49.8353 43.5038 47.9153 40.8638 47.9153C38.3038 47.9153 36.3838 49.8353 36.3838 52.4753C36.3838 55.0353 38.3038 57.0353 40.8638 57.0353ZM61.5091 61.1953C56.3091 61.1953 52.5491 57.6753 52.5491 52.4753C52.5491 47.6753 56.7091 43.7553 61.5091 43.7553C63.9891 43.7553 65.9891 44.4753 67.7491 46.2353L64.7891 49.1953C63.9091 48.3953 62.7891 47.9153 61.5091 47.9153C58.9491 47.9153 57.0291 49.8353 57.0291 52.4753C57.0291 55.0353 58.9491 57.0353 61.5091 57.0353C62.7091 57.0353 63.9091 56.4753 64.7091 55.6753L67.6691 58.5553C66.0691 60.2353 63.8291 61.1953 61.5091 61.1953ZM79.2825 61.1953C74.0825 61.1953 70.3225 57.6753 70.3225 52.4753C70.3225 47.6753 74.4825 43.7553 79.2825 43.7553C81.7625 43.7553 83.7625 44.4753 85.5225 46.2353L82.5625 49.1953C81.6825 48.3953 80.5625 47.9153 79.2825 47.9153C76.7225 47.9153 74.8025 49.8353 74.8025 52.4753C74.8025 55.0353 76.7225 57.0353 79.2825 57.0353C80.4825 57.0353 81.6825 56.4753 82.4825 55.6753L85.4425 58.5553C83.8425 60.2353 81.6025 61.1953 79.2825 61.1953Z" fill="#212529"/>
</g>
<defs>
<clipPath id="clip0_73_9">
<rect width="100" height="100" fill="white" transform="translate(0 0.295319)"/>
</clipPath>
</defs>
</svg>
