<svg width="52" height="51" viewBox="0 0 52 51" fill="none" xmlns="http://www.w3.org/2000/svg">
<path d="M50.75 25.5784C50.75 11.9094 39.669 0.82843 26 0.82843C12.331 0.82843 1.25 11.9094 1.25 25.5784C1.25 39.2475 12.331 50.3284 26 50.3284C39.669 50.3284 50.75 39.2475 50.75 25.5784Z" stroke="#212529"/>
<path d="M10.52 30.8284L7.15997 22.5084H9.39997L11.64 28.5484L13.88 22.5084H16.12L12.76 30.8284H10.52ZM16.9519 34.9884V26.6684C16.9519 24.2684 19.0319 22.3084 21.4319 22.3084C24.0319 22.3084 25.9119 24.0684 25.9119 26.6684C25.9119 29.0684 23.9119 31.0284 21.5518 31.0284C20.7119 31.0284 19.9119 30.8284 19.1919 30.3084V34.9884H16.9519ZM21.4319 28.9484C22.7519 28.9484 23.6719 27.9484 23.6719 26.6684C23.6719 25.3484 22.7519 24.3884 21.4319 24.3884C20.1519 24.3884 19.1919 25.3484 19.1919 26.6684C19.1919 27.9484 20.1519 28.9484 21.4319 28.9484ZM31.7545 31.0284C29.1545 31.0284 27.2745 29.2684 27.2745 26.6684C27.2745 24.2684 29.3545 22.3084 31.7545 22.3084C32.9945 22.3084 33.9945 22.6684 34.8745 23.5484L33.3945 25.0284C32.9545 24.6284 32.3945 24.3884 31.7545 24.3884C30.4745 24.3884 29.5145 25.3484 29.5145 26.6684C29.5145 27.9484 30.4745 28.9484 31.7545 28.9484C32.3545 28.9484 32.9545 28.6684 33.3545 28.2684L34.8345 29.7084C34.0345 30.5484 32.9145 31.0284 31.7545 31.0284ZM40.6412 31.0284C38.0412 31.0284 36.1612 29.2684 36.1612 26.6684C36.1612 24.2684 38.2412 22.3084 40.6412 22.3084C41.8812 22.3084 42.8812 22.6684 43.7612 23.5484L42.2812 25.0284C41.8412 24.6284 41.2812 24.3884 40.6412 24.3884C39.3612 24.3884 38.4012 25.3484 38.4012 26.6684C38.4012 27.9484 39.3612 28.9484 40.6412 28.9484C41.2412 28.9484 41.8412 28.6684 42.2412 28.2684L43.7212 29.7084C42.9212 30.5484 41.8012 31.0284 40.6412 31.0284Z" fill="#212529"/>
</svg>
