<svg width="1280" height="720" viewBox="0 0 1280 720" fill="none" xmlns="http://www.w3.org/2000/svg">
<g clip-path="url(#clip0_370_3)">
<rect width="1280" height="720" fill="white"/>
<path d="M76.8285 264.6C85.7481 247.819 89.5154 239.352 94.2981 225.779C102.743 173.022 109.593 121.891 123.414 103.492C137.235 85.0925 209.629 49.0462 251.524 31.6723C366.807 15.0045 430.158 25.6034 536.86 142.313C590.832 178.319 621.401 197.916 697.968 190.839C775.295 180.064 819.892 172.647 928.955 126.784C974.118 87.0758 994.101 61.9783 1024.07 14.2028C1043.07 17.6509 1050.53 21.9277 1060.95 31.6723C1107.6 58.3948 1127.33 155.821 1165.76 287.893C1221.59 462.604 1256.43 541.207 1248.91 561.981V589.906C1144.46 637.077 1066.51 698.448 954.293 765.84L831.902 676.105C697.925 586.26 620.061 550.186 491.471 491.601L76.8285 264.6Z" fill="#C6E7B8"/>
<path d="M1254.5 547.319L1302.98 491.601V-16.2975H1153.09L1083.45 36.9727C1096.51 34.4068 1148.45 203.465 1254.5 547.319Z" fill="#C6E7B8"/>
<path d="M-6.62708 247.756C24.8239 251.581 42.5429 256.94 74.3383 273.324L818.367 666.218C856.247 687.444 871.09 700.829 892.514 725.877" stroke="#A0CED9" stroke-width="20"/>
<path fill-rule="evenodd" clip-rule="evenodd" d="M943.627 643.463C979.869 646.137 1088.79 596.779 1096.58 586.336C1104.37 575.894 1111.96 547.622 1111.96 540.373C1111.96 533.125 1091.92 500.732 1090.69 494.013C1089.46 487.294 1107.01 451.632 1109.48 429.084C1111.95 406.536 1012.16 372.674 1005.67 387.928C1005.67 387.928 886.037 463.483 876.058 463.483C866.079 463.483 815.604 456.281 804.189 453.04C792.774 449.799 765.159 427.49 753.205 424.17C741.251 420.849 702.319 420.849 694.235 424.17C686.152 427.49 669.453 452.627 669.299 463.483C669.144 474.338 677.526 488.371 689.321 502.796C705.364 510.927 714.518 514.073 731.091 517.538C731.091 517.538 754.018 509.656 759.347 511.396C764.676 513.135 801.13 547.177 817.088 575.894C833.047 604.61 907.386 640.789 943.627 643.463ZM952.227 575.894C955.168 587.96 944.93 617.038 938.099 612.135C931.267 607.233 888.958 592.479 880.358 592.479C871.758 592.479 858.18 564.783 856.401 558.08C854.623 551.377 872.756 530.998 876.058 535.352C879.36 539.706 949.286 563.827 952.227 575.894ZM973.112 517.538C971.884 517.577 933.185 524.91 927.656 524.91C896.028 518.364 888.761 500.435 888.958 495.425C889.154 490.414 900.882 485.737 909.228 483.139C929.499 476.96 940.99 473.706 963.284 470.854C971.665 478.524 975.67 483.529 979.869 495.425C981.074 502.674 977.333 517.407 973.112 517.538ZM871.144 490.511C871.559 495.425 841.045 511.396 841.045 511.396L809.103 529.824C801.381 529.174 797.669 527.293 791.903 521.838C781.251 509.449 773.973 504.726 759.347 499.11C749.143 498.098 743.004 498.755 731.091 502.796C714.749 500.953 709.043 496.905 697.921 490.511C688.781 480.593 680.576 471.212 680.721 463.483C680.866 455.754 694.235 438.159 697.921 435.841C701.606 433.523 725.867 432.686 744.605 435.841C759.462 439.936 773.475 449.956 782.689 453.04C791.903 456.125 813.742 461.158 821.388 463.483C829.035 465.808 870.728 485.596 871.144 490.511Z" fill="#A0CED9"/>
<path d="M377.464 529.652C377.464 529.652 372.261 547.65 364.659 550.606C357.056 553.562 157.162 584.969 157.162 584.969M377.464 529.652C377.464 529.652 158.416 411.655 151.627 409.749C144.837 407.843 140.939 407.496 136.493 409.749C132.047 412.002 157.162 584.969 157.162 584.969M377.464 529.652L444.891 565.91M157.162 584.969L-0.871582 611.14C71.699 660.778 117.624 686.689 210.996 728.715M157.162 584.969L165.596 643.735M747.651 728.715L480.333 584.969M444.891 565.91L336.72 739.192M444.891 565.91L480.333 584.969M480.333 584.969L517.056 688.895M531.126 728.715L517.056 688.895M517.056 688.895C517.056 688.895 538.247 684.299 551.789 688.895C565.33 693.491 629.323 728.715 629.323 728.715M1015.7 728.715L1249.69 591.18M1256.59 564.773C1198.22 373.452 1165.81 267.178 1109.98 83.7487C1088.45 43.4489 1072.29 24.5933 1028.99 4.15977C998.281 53.2265 957.086 108.184 926.367 124.939C895.649 141.695 774.501 175.345 676.43 189.867C603.865 183.725 574.028 166.162 528.422 124.939C425.491 26.1005 364.402 14.1437 252.654 28.595L239.389 -9.1051M1269.16 596.888L1287.31 653.438" stroke="#808080" stroke-width="15"/>
<path d="M446.064 563.714L516.109 449.754M674.929 191.36L634.344 257.39M634.344 257.39C634.344 257.39 650.536 271.713 671.342 273.866C674.791 274.223 684.333 271.76 697.852 267.403M634.344 257.39L516.109 449.754M634.344 257.39L454.673 142.573C388.434 110.272 302.938 113.162 278.182 123.92C253.426 134.677 241.649 162.366 224.373 198.534C214.853 262.023 228.84 279.855 256.658 309.021L516.109 449.754M1068.09 29.9343C1051.38 42.7918 1041.74 51.2543 1022.89 73.6985L984.222 118.34M984.222 118.34C970.913 142.714 960.704 155.462 934.644 175.576C934.644 175.576 921.347 181.083 900.714 189.492M984.222 118.34L1013.56 166.249L1057.33 306.151C1101.66 364.799 1134.87 408.64 1156.1 440.545M1182.88 491.252L1196.51 552.235M1182.88 491.252C1180.11 479.618 1171.08 463.051 1156.1 440.545M1182.88 491.252L1152.17 488.65M1196.51 552.235L1249.6 575.91M1196.51 552.235L1123.56 593.164M516.109 449.754L586.857 487.562M586.857 487.562L905.229 657.699C946.547 668.387 969.134 668.065 1008.54 657.699L1123.56 593.164M586.857 487.562C617.316 443.992 638.269 424.168 688.677 404.286C744.159 399.284 775.285 396.303 830.124 396.938M830.124 396.938C830.124 396.938 881.1 371.221 881.559 367.088M830.124 396.938C859.356 415.732 878.464 420.045 921.123 408.144M881.559 367.088C882.018 362.954 886.611 355.607 886.611 355.607M881.559 367.088L895.336 371.112M886.611 355.607L895.336 349.636M886.611 355.607C886.611 355.607 875.589 343.666 869.619 342.748C863.649 341.829 833.692 357.271 813.132 361.117C784.68 354.847 772.429 341.684 758.941 296.364M895.336 349.636L905.229 305.09L900.714 189.492M895.336 349.636V371.112M900.714 189.492C869.156 202.351 820.438 221.996 775.88 239.098M758.941 296.364L775.88 239.098M758.941 296.364C739.086 280.834 725.795 274.42 697.852 267.403M775.88 239.098C745.781 250.651 717.581 261.044 697.852 267.403M895.336 371.112L921.123 408.144M921.123 408.144C921.123 408.144 1002.03 387.213 1012.9 386.811C1023.77 386.408 1039.77 388.421 1057.33 391.238C1074.89 394.056 1110.31 423.843 1111.12 429.478C1111.92 435.114 1091.79 485.401 1091.79 491.252C1091.79 497.103 1102.25 514.235 1102.25 514.235M1117.15 547.016L1102.25 514.235M1102.25 514.235L1142.91 503.946M1142.91 503.946L1152.17 488.65M1142.91 503.946L1123.56 593.164M1152.17 488.65L1156.1 440.545M493.17 -13.3738C511.982 39.9418 522.82 69.8023 534.21 123.92C551.784 106.174 563.928 102.754 586.857 100.275C683.259 121.964 719.797 119.003 769.4 100.275M769.4 100.275C862.611 63.6427 910.648 40.1501 984.222 -10.2169M769.4 100.275L733.096 -2.32458M140.385 420.702L92.2423 425.437M92.2423 425.437L85.9284 374.137M92.2423 425.437C89.0533 434.478 85.9595 439.689 73.3008 449.754M85.9284 374.137C85.9284 374.137 29.104 380.451 16.4763 384.397C3.84864 388.344 -10.3574 399.393 -10.3574 399.393L3.05946 415.177L7.28821 449.754M85.9284 374.137C113.091 347.887 113.49 334.881 85.9284 314.945C52.6299 295.529 30.5333 293.974 -10.3574 295.215M66.987 532.772C50.3481 539.192 20.4225 532.772 16.4763 524.88C12.5302 516.988 11.4994 479.923 7.28821 449.754M66.987 532.772C85.7278 530.772 97.0051 531.451 119.865 539.086L149.067 532.772M66.987 532.772L56.727 471.213C58.7641 455.454 62.5561 451.029 73.3008 449.754M73.3008 449.754C57.84 443.092 41.9141 444.043 7.28821 449.754M-10.3574 568.288C0.56632 565.34 50.1076 554.844 73.3008 553.292C82.0561 570.147 84.1961 579.667 85.9284 596.7" stroke="#808080" stroke-width="7.5"/>
<circle cx="1264.81" cy="580.995" r="15.2031" stroke="#808080" stroke-width="16"/>
<g clip-path="url(#clip1_370_3)">
<path d="M810.926 390.215C811.648 390.215 812.37 390.215 813.209 390.284C813.776 390.755 814.207 391.182 814.68 391.554C817.09 393.454 819.499 395.357 821.933 397.227C824.31 399.053 826.604 401.019 829.135 402.605C833.677 405.451 838.367 408.061 842.999 410.764C844.117 411.417 845.249 412.048 846.59 412.812C846.59 410.891 846.582 409.251 846.593 407.611C846.603 406.19 847.056 405.691 848.3 405.688C849.559 405.685 850.017 406.173 850.023 407.591C850.035 410.24 850.03 412.89 850.026 415.539C850.023 417.368 849.674 417.712 847.817 417.714C843.807 417.717 839.796 417.737 835.787 417.699C834.854 417.69 834.495 417.989 834.544 418.935C834.606 420.113 834.556 421.297 834.559 422.478C834.566 424.802 834.379 424.597 836.612 424.581C837.536 424.575 838.302 424.763 838.787 425.642C838.938 425.915 839.2 426.138 839.44 426.35C843.665 430.095 848.008 433.696 852.755 436.769C853.995 437.571 855.359 438.18 856.818 438.959C856.858 438.399 856.898 438.087 856.899 437.776C856.907 436.236 856.885 434.696 856.911 433.157C856.932 431.945 857.448 431.465 858.633 431.469C859.819 431.473 860.309 431.944 860.333 433.178C860.384 435.824 860.316 438.476 860.483 441.115C860.585 442.735 860.112 443.493 858.476 443.494C853.356 443.499 848.236 443.495 843.116 443.496C841.435 443.497 841.434 443.498 841.434 445.227C841.433 447.984 841.387 450.742 841.466 453.497C841.486 454.179 841.772 454.951 842.179 455.502C843.024 456.646 843.963 457.739 844.983 458.73C848.741 462.385 852.895 465.523 857.541 467.973C858.947 468.714 860.415 469.336 862.059 470.109C862.059 468.07 862.055 466.289 862.06 464.508C862.065 462.905 862.493 462.396 863.806 462.407C865.076 462.417 865.49 462.91 865.494 464.454C865.5 467.103 865.501 469.753 865.493 472.402C865.489 474.034 865.097 474.428 863.465 474.431C859.563 474.438 855.66 474.433 851.757 474.434C850.029 474.434 850.028 474.435 850.028 476.117C850.027 483.207 850.043 490.296 850.008 497.385C850.004 498.329 849.741 499.272 849.598 500.215C824.743 500.215 799.888 500.215 774.92 500.132C774.672 499.321 774.423 498.593 774.42 497.863C774.391 490.703 774.402 483.542 774.402 476.381C774.402 474.434 774.402 474.434 772.507 474.434C768.604 474.433 764.702 474.441 760.799 474.428C759.379 474.424 758.945 473.985 758.938 472.558C758.925 469.801 758.926 467.045 758.938 464.288C758.944 462.895 759.427 462.394 760.686 462.407C761.897 462.419 762.352 462.9 762.366 464.244C762.382 465.783 762.368 467.323 762.373 468.863C762.375 469.202 762.406 469.541 762.432 470.041C763.277 469.684 763.969 469.417 764.639 469.103C771.236 466.011 776.857 461.619 781.741 456.245C782.58 455.321 783.092 454.358 783.032 453.004C782.911 450.324 782.998 447.635 782.995 444.95C782.993 443.507 782.987 443.498 781.573 443.497C776.382 443.494 771.19 443.501 765.999 443.492C764.551 443.489 764.103 443.061 764.096 441.662C764.081 438.834 764.078 436.005 764.099 433.177C764.108 431.953 764.622 431.472 765.801 431.469C766.994 431.466 767.501 431.935 767.518 433.158C767.543 435.006 767.525 436.855 767.525 438.891C768.136 438.638 768.591 438.528 768.959 438.286C771.91 436.349 774.928 434.501 777.758 432.4C780.303 430.51 782.72 428.423 785.026 426.244C786.182 425.153 787.229 424.298 788.901 424.577C789.659 424.704 789.89 424.247 789.877 423.545C789.851 422.185 789.871 420.824 789.871 419.463C789.87 417.716 789.87 417.715 788.099 417.715C784.16 417.714 780.222 417.709 776.284 417.718C775.33 417.72 774.463 417.504 774.442 416.392C774.384 413.278 774.391 410.163 774.436 407.049C774.451 406.021 775.19 405.681 776.139 405.684C777.095 405.688 777.74 406.052 777.819 407.08C777.857 407.579 777.838 408.082 777.839 408.583C777.841 409.963 777.84 411.343 777.84 412.962C778.555 412.567 779.036 412.295 779.524 412.034C784.758 409.238 789.983 406.424 795.234 403.658C797.055 402.699 798.612 401.427 800.133 400.064C802.684 397.776 805.323 395.587 807.878 393.304C808.955 392.342 809.913 391.249 810.926 390.215ZM812.006 405.69C807.891 405.688 803.775 405.672 799.66 405.702C799.154 405.706 798.602 405.87 798.152 406.111C793.423 408.638 788.71 411.196 783.994 413.748C783.794 413.856 783.606 413.986 783.203 414.237C783.672 414.259 783.876 414.276 784.079 414.276C793.454 414.266 802.83 414.255 812.406 414.268C822.117 414.268 831.827 414.268 841.538 414.268C841.52 414.018 841.432 413.965 841.342 413.913C836.8 411.262 832.26 408.607 827.709 405.972C827.416 405.801 827.038 405.697 826.699 405.697C821.868 405.69 817.036 405.706 812.006 405.69ZM814.537 479.809C820.89 481.487 824.245 485.85 824.246 492.437C824.246 493.856 824.246 495.275 824.246 496.711C831.75 496.711 839.134 496.711 846.555 496.711C846.555 490.963 846.555 485.28 846.583 479.397C846.583 477.766 846.583 476.135 846.583 474.504C823.601 474.504 800.761 474.504 777.875 474.504C777.875 476.249 777.875 477.923 777.845 479.796C777.845 485.433 777.845 491.069 777.845 496.709C785.354 496.709 792.736 496.709 800.184 496.709C800.184 495.215 800.183 493.79 800.184 492.365C800.186 485.791 803.681 481.333 810.239 479.791C811.617 479.784 812.996 479.778 814.537 479.809ZM822.525 426.463C822.29 427.594 821.559 428.036 820.443 428.033C817.697 428.026 814.951 428.05 812.006 428.034C804.387 428.032 796.768 428.023 789.149 428.046C788.735 428.047 788.24 428.211 787.92 428.469C783.725 431.858 779.561 435.285 775.372 438.682C774.81 439.138 774.153 439.478 773.54 439.872C773.563 439.934 773.587 439.996 773.611 440.059C773.992 440.059 774.373 440.059 774.754 440.059C782.338 440.059 789.921 440.063 797.505 440.057C802.405 440.054 807.305 440.036 812.406 440.049C825.205 440.049 838.003 440.049 851.077 440.049C850.658 439.738 850.476 439.589 850.28 439.46C845.368 436.219 840.883 432.445 836.536 428.494C836.235 428.22 835.726 428.055 835.31 428.048C832.912 428.006 830.512 428.034 828.113 428.025C826.743 428.019 826.31 427.665 825.969 426.151C826.195 425.007 826.931 424.559 828.05 424.585C829.042 424.608 830.034 424.59 831.058 424.59C831.058 422.253 831.058 420.023 831.058 417.779C818.458 417.779 805.921 417.779 793.383 417.779C793.383 420.075 793.383 422.305 793.383 424.59C793.846 424.59 794.236 424.59 794.626 424.59C803.177 424.59 811.728 424.588 820.279 424.591C821.761 424.591 822.179 424.914 822.525 426.463ZM812.006 457.253C808.2 457.251 804.395 457.253 800.589 457.244C799.238 457.24 798.8 456.877 798.469 455.371C798.905 454.061 799.266 453.81 800.764 453.809C812.753 453.808 824.742 453.809 836.73 453.809C837.141 453.809 837.552 453.809 837.94 453.809C837.94 450.289 837.94 446.938 837.94 443.554C820.763 443.554 803.643 443.554 786.501 443.554C786.501 446.988 786.501 450.364 786.501 453.809C788.674 453.809 790.78 453.803 792.886 453.811C794.255 453.816 794.689 454.168 795.023 455.682C794.793 456.822 794.058 457.263 792.939 457.252C790.828 457.232 788.717 457.278 786.607 457.229C785.86 457.212 785.366 457.428 784.875 458.008C780.627 463.026 775.627 467.144 769.892 470.366C769.646 470.504 769.425 470.686 768.979 470.996C769.671 470.996 770.064 470.996 770.456 470.996C782.155 470.996 793.854 470.998 805.552 470.994C807.77 470.994 809.987 470.974 812.406 470.986C826.656 470.986 840.906 470.986 855.156 470.986C855.135 470.712 855.048 470.654 854.957 470.604C848.943 467.273 843.73 462.971 839.282 457.73C839.065 457.474 838.627 457.268 838.292 457.267C829.596 457.253 820.9 457.269 812.006 457.253ZM813.611 496.777C815.684 496.777 817.758 496.752 819.83 496.79C820.565 496.803 820.847 496.577 820.821 495.817C820.773 494.354 820.832 492.886 820.798 491.422C820.698 487.05 817.312 483.448 812.962 483.055C808.589 482.659 804.534 485.666 803.828 490.052C803.524 491.938 803.7 493.898 803.611 495.822C803.575 496.588 803.876 496.797 804.604 496.789C807.535 496.759 810.466 496.777 813.611 496.777ZM809.744 402.247C813.953 402.247 818.163 402.247 822.372 402.247C822.379 402.17 822.387 402.094 822.394 402.017C819.011 399.408 815.627 396.799 812.216 394.169C809.173 396.849 806.219 399.452 803.047 402.247C805.41 402.247 807.47 402.247 809.744 402.247Z" fill="#808080"/>
<path d="M798.433 455.526C798.8 456.877 799.239 457.24 800.589 457.244C804.395 457.253 808.201 457.251 812.108 457.365C812.208 461.972 812.207 466.467 812.205 470.962C809.988 470.974 807.77 470.994 805.553 470.995C793.854 470.998 782.155 470.996 770.456 470.996C770.064 470.996 769.671 470.996 768.979 470.996C769.426 470.686 769.646 470.504 769.892 470.366C775.627 467.144 780.627 463.026 784.876 458.008C785.367 457.428 785.861 457.212 786.607 457.229C788.717 457.278 790.828 457.232 792.939 457.252C794.058 457.263 794.793 456.822 795.139 455.604C796.315 455.527 797.374 455.526 798.433 455.526Z" fill="#CBCBCB"/>
<path d="M812.306 470.974C812.207 466.467 812.208 461.972 812.207 457.378C820.901 457.269 829.596 457.253 838.292 457.267C838.627 457.268 839.065 457.474 839.282 457.73C843.73 462.971 848.943 467.273 854.958 470.604C855.049 470.654 855.136 470.712 855.156 470.986C840.906 470.986 826.656 470.986 812.306 470.974Z" fill="#CBCBCB"/>
<path d="M798.451 455.448C797.374 455.526 796.315 455.527 795.157 455.527C794.689 454.168 794.255 453.816 792.886 453.811C790.78 453.803 788.674 453.809 786.501 453.809C786.501 450.364 786.501 446.988 786.501 443.554C803.643 443.554 820.763 443.554 837.94 443.554C837.94 446.938 837.94 450.289 837.94 453.809C837.552 453.809 837.141 453.809 836.73 453.809C824.742 453.809 812.753 453.808 800.764 453.809C799.266 453.81 798.905 454.061 798.451 455.448ZM817.456 452.084C818.609 451.913 819.103 451.208 819.093 450.081C819.085 449.081 819.111 448.081 819.085 447.082C819.057 445.978 818.387 445.251 817.422 445.22C816.416 445.188 815.686 445.939 815.657 447.084C815.631 448.083 815.658 449.084 815.649 450.084C815.638 451.212 816.134 451.915 817.456 452.084ZM826.001 450.732C826.328 451.71 826.996 452.25 828.027 452.034C829.052 451.819 829.433 451.048 829.409 450.033C829.387 449.07 829.42 448.106 829.4 447.143C829.375 445.971 828.699 445.226 827.692 445.22C826.685 445.214 825.989 445.96 825.969 447.124C825.949 448.265 825.972 449.407 826.001 450.732ZM808.33 451.51C808.479 451.083 808.732 450.662 808.757 450.227C808.819 449.16 808.803 448.085 808.769 447.015C808.736 445.931 808.015 445.211 807.043 445.22C806.071 445.229 805.377 445.949 805.346 447.044C805.317 448.042 805.326 449.043 805.341 450.043C805.367 451.881 806.626 452.573 808.33 451.51ZM795.196 446.235C795.14 447.582 795.043 448.929 795.041 450.276C795.039 451.362 795.776 452.084 796.746 452.084C797.716 452.083 798.424 451.362 798.458 450.274C798.489 449.239 798.457 448.203 798.469 447.168C798.479 446.292 798.146 445.625 797.297 445.326C796.44 445.024 795.767 445.346 795.196 446.235Z" fill="white"/>
<path d="M812.205 428.061C814.951 428.05 817.697 428.026 820.443 428.033C821.559 428.036 822.29 427.594 822.64 426.385C823.815 426.307 824.874 426.307 825.933 426.307C826.31 427.666 826.744 428.019 828.113 428.025C830.512 428.034 832.912 428.006 835.31 428.048C835.726 428.055 836.235 428.221 836.536 428.494C840.883 432.445 845.368 436.219 850.28 439.46C850.476 439.589 850.658 439.738 851.077 440.049C838.003 440.049 825.205 440.049 812.308 439.938C812.208 435.906 812.207 431.983 812.205 428.061Z" fill="#CBCBCB"/>
<path d="M810.059 479.771C803.681 481.333 800.186 485.791 800.184 492.365C800.183 493.79 800.184 495.215 800.184 496.709C792.736 496.709 785.354 496.709 777.845 496.709C777.845 491.069 777.845 485.433 777.959 479.695C779.702 479.595 781.332 479.596 782.976 479.696C782.992 481.861 782.989 483.927 782.997 485.992C783.002 487.392 783.668 488.208 784.761 488.177C785.818 488.146 786.425 487.363 786.434 486.005C786.448 483.869 786.457 481.733 786.567 479.595C788.295 479.595 789.925 479.596 791.569 479.696C791.585 481.861 791.583 483.927 791.59 485.992C791.595 487.392 792.261 488.208 793.355 488.177C794.411 488.146 795.019 487.363 795.028 486.005C795.042 483.869 795.051 481.733 795.16 479.595C799.776 479.592 804.293 479.586 808.809 479.598C809.226 479.599 809.642 479.711 810.059 479.771Z" fill="white"/>
<path d="M846.555 479.597C846.555 485.28 846.555 490.963 846.555 496.711C839.134 496.711 831.75 496.711 824.246 496.711C824.246 495.275 824.246 493.856 824.246 492.437C824.245 485.85 820.891 481.487 814.533 479.75C814.882 479.657 815.234 479.594 815.587 479.594C820.18 479.59 824.774 479.595 829.382 479.696C829.398 481.861 829.395 483.927 829.403 485.992C829.408 487.392 830.074 488.208 831.167 488.177C832.224 488.146 832.831 487.363 832.84 486.005C832.854 483.869 832.863 481.733 832.973 479.595C834.701 479.595 836.331 479.596 837.975 479.696C837.991 481.861 837.989 483.927 837.996 485.992C838.001 487.392 838.667 488.208 839.761 488.177C840.817 488.146 841.425 487.363 841.434 486.005C841.448 483.869 841.457 481.733 841.567 479.595C843.295 479.595 844.925 479.596 846.555 479.597Z" fill="white"/>
<path d="M812.106 428.048C812.207 431.983 812.208 435.906 812.207 439.926C807.305 440.036 802.405 440.054 797.505 440.057C789.921 440.063 782.338 440.059 774.754 440.059C774.373 440.059 773.992 440.059 773.611 440.059C773.587 439.996 773.563 439.934 773.54 439.872C774.153 439.478 774.81 439.138 775.372 438.682C779.561 435.285 783.725 431.858 787.92 428.469C788.24 428.211 788.735 428.047 789.149 428.046C796.768 428.023 804.387 428.032 812.106 428.048ZM800 434.89C800.677 434.891 801.357 434.938 802.029 434.882C802.967 434.804 803.618 434.062 803.614 433.175C803.609 432.286 802.955 431.569 802.014 431.48C801.519 431.433 801.017 431.477 800.519 431.46C799.506 431.424 798.735 431.811 798.521 432.838C798.306 433.869 798.842 434.536 800 434.89ZM793.687 431.462C792.32 431.534 791.576 432.157 791.596 433.214C791.617 434.274 792.401 434.892 793.75 434.904C794.213 434.908 794.679 434.932 795.138 434.887C796.079 434.794 796.733 434.081 796.739 433.194C796.745 432.307 796.093 431.58 795.16 431.48C794.737 431.435 794.306 431.466 793.687 431.462Z" fill="#CBCBCB"/>
<path d="M829.368 479.597C824.774 479.595 820.18 479.59 815.587 479.594C815.234 479.594 814.882 479.657 814.452 479.731C812.996 479.778 811.617 479.784 810.149 479.781C809.642 479.711 809.226 479.599 808.809 479.598C804.292 479.586 799.776 479.592 795.142 479.517C794.836 478.482 794.279 477.876 793.281 477.893C792.221 477.912 791.714 478.606 791.555 479.597C789.925 479.596 788.295 479.595 786.549 479.517C786.243 478.482 785.685 477.876 784.688 477.893C783.628 477.912 783.12 478.606 782.961 479.597C781.331 479.596 779.702 479.595 777.973 479.596C777.875 477.923 777.875 476.249 777.875 474.504C800.761 474.504 823.601 474.504 846.583 474.504C846.583 476.135 846.583 477.766 846.569 479.497C844.925 479.596 843.295 479.595 841.549 479.517C841.243 478.482 840.685 477.876 839.688 477.893C838.628 477.912 838.12 478.606 837.961 479.597C836.331 479.596 834.701 479.595 832.955 479.517C832.649 478.482 832.091 477.876 831.094 477.893C830.034 477.912 829.527 478.606 829.368 479.597Z" fill="white"/>
<path d="M825.951 426.229C824.873 426.307 823.814 426.307 822.657 426.307C822.179 424.914 821.761 424.591 820.279 424.591C811.728 424.588 803.177 424.59 794.626 424.59C794.236 424.59 793.846 424.59 793.383 424.59C793.383 422.305 793.383 420.075 793.383 417.779C805.921 417.779 818.458 417.779 831.058 417.779C831.058 420.023 831.058 422.253 831.058 424.59C830.034 424.59 829.042 424.608 828.05 424.585C826.931 424.559 826.195 425.007 825.951 426.229Z" fill="white"/>
<path d="M813.504 496.777C810.466 496.777 807.535 496.759 804.604 496.789C803.876 496.797 803.575 496.588 803.611 495.822C803.7 493.898 803.524 491.938 803.828 490.052C804.534 485.666 808.589 482.659 812.962 483.055C817.312 483.448 820.698 487.05 820.799 491.422C820.832 492.886 820.773 494.354 820.821 495.817C820.847 496.577 820.565 496.803 819.83 496.79C817.758 496.752 815.684 496.777 813.504 496.777Z" fill="#CBCBCB"/>
<path d="M812.205 405.717C817.037 405.706 821.868 405.69 826.699 405.697C827.038 405.697 827.416 405.802 827.71 405.972C832.26 408.607 836.8 411.262 841.342 413.913C841.432 413.965 841.52 414.018 841.538 414.268C831.827 414.268 822.117 414.268 812.308 414.157C812.208 411.27 812.207 408.494 812.205 405.717Z" fill="#CBCBCB"/>
<path d="M812.106 405.704C812.207 408.494 812.208 411.27 812.207 414.145C802.83 414.255 793.454 414.266 784.079 414.276C783.876 414.276 783.672 414.259 783.203 414.237C783.606 413.986 783.794 413.856 783.994 413.748C788.71 411.196 793.423 408.638 798.152 406.111C798.602 405.87 799.154 405.706 799.66 405.702C803.775 405.672 807.891 405.688 812.106 405.704Z" fill="#CBCBCB"/>
<path d="M809.637 402.247C807.47 402.247 805.41 402.247 803.047 402.247C806.219 399.452 809.173 396.849 812.216 394.169C815.627 396.799 819.011 399.408 822.394 402.017C822.387 402.094 822.379 402.17 822.372 402.247C818.163 402.247 813.953 402.247 809.637 402.247Z" fill="white"/>
<path d="M817.372 452.084C816.134 451.915 815.638 451.212 815.649 450.084C815.658 449.084 815.632 448.083 815.657 447.084C815.686 445.939 816.416 445.188 817.422 445.22C818.387 445.251 819.057 445.978 819.085 447.082C819.111 448.081 819.085 449.081 819.093 450.081C819.103 451.208 818.609 451.913 817.372 452.084Z" fill="#808080"/>
<path d="M825.989 450.64C825.972 449.407 825.949 448.265 825.969 447.124C825.989 445.96 826.685 445.214 827.692 445.22C828.699 445.226 829.375 445.971 829.4 447.143C829.42 448.106 829.387 449.07 829.409 450.033C829.433 451.048 829.052 451.819 828.027 452.034C826.996 452.25 826.328 451.71 825.989 450.64Z" fill="#808080"/>
<path d="M808.271 451.571C806.626 452.573 805.368 451.881 805.341 450.043C805.326 449.043 805.317 448.042 805.346 447.044C805.378 445.949 806.071 445.229 807.043 445.22C808.015 445.211 808.736 445.931 808.77 447.015C808.803 448.085 808.82 449.159 808.757 450.227C808.732 450.662 808.479 451.083 808.271 451.571Z" fill="#808080"/>
<path d="M795.231 446.154C795.767 445.346 796.44 445.024 797.297 445.326C798.146 445.625 798.479 446.292 798.469 447.168C798.457 448.203 798.489 449.239 798.458 450.274C798.424 451.362 797.716 452.083 796.746 452.084C795.776 452.084 795.039 451.361 795.041 450.276C795.043 448.929 795.14 447.582 795.231 446.154Z" fill="#808080"/>
<path d="M782.976 479.696C783.121 478.606 783.628 477.912 784.688 477.893C785.685 477.876 786.243 478.482 786.45 479.519C786.457 481.733 786.448 483.869 786.434 486.005C786.425 487.363 785.818 488.146 784.761 488.177C783.668 488.208 783.002 487.392 782.997 485.992C782.989 483.927 782.992 481.861 782.976 479.696Z" fill="#808080"/>
<path d="M791.569 479.696C791.714 478.606 792.221 477.912 793.281 477.893C794.279 477.876 794.837 478.482 795.044 479.519C795.051 481.733 795.042 483.869 795.028 486.005C795.019 487.363 794.411 488.146 793.355 488.177C792.261 488.208 791.595 487.392 791.59 485.992C791.583 483.927 791.585 481.861 791.569 479.696Z" fill="#808080"/>
<path d="M829.382 479.696C829.527 478.606 830.034 477.912 831.094 477.893C832.091 477.876 832.649 478.482 832.856 479.519C832.863 481.733 832.854 483.869 832.84 486.005C832.831 487.363 832.224 488.146 831.167 488.177C830.074 488.208 829.408 487.392 829.403 485.992C829.395 483.927 829.398 481.861 829.382 479.696Z" fill="#808080"/>
<path d="M837.975 479.696C838.12 478.606 838.627 477.912 839.687 477.893C840.685 477.876 841.243 478.482 841.45 479.519C841.457 481.733 841.448 483.869 841.434 486.005C841.425 487.363 840.817 488.146 839.761 488.177C838.667 488.208 838.001 487.392 837.996 485.992C837.989 483.927 837.991 481.861 837.975 479.696Z" fill="#808080"/>
<path d="M799.91 434.877C798.842 434.536 798.306 433.869 798.521 432.838C798.735 431.811 799.506 431.424 800.519 431.46C801.017 431.477 801.52 431.433 802.014 431.48C802.955 431.569 803.609 432.286 803.614 433.175C803.618 434.062 802.967 434.804 802.029 434.882C801.357 434.938 800.677 434.891 799.91 434.877Z" fill="#808080"/>
<path d="M793.783 431.462C794.306 431.466 794.737 431.435 795.16 431.48C796.093 431.58 796.745 432.307 796.739 433.194C796.733 434.081 796.079 434.794 795.138 434.887C794.679 434.932 794.213 434.908 793.75 434.904C792.401 434.892 791.617 434.274 791.596 433.214C791.576 432.157 792.32 431.534 793.783 431.462Z" fill="#808080"/>
</g>
<path d="M336.285 259.756L331.568 248.089H333.651L337.335 257.539H336.601L340.318 248.089H342.368L337.618 259.756H336.285ZM344.039 259.756V248.089H345.956V259.756H344.039ZM353.783 259.922C352.938 259.922 352.155 259.772 351.433 259.472C350.722 259.161 350.099 258.733 349.566 258.189C349.033 257.633 348.622 256.994 348.333 256.272C348.044 255.539 347.899 254.756 347.899 253.922C347.899 253.089 348.044 252.311 348.333 251.589C348.622 250.856 349.033 250.217 349.566 249.672C350.099 249.128 350.722 248.7 351.433 248.389C352.155 248.078 352.938 247.922 353.783 247.922C354.727 247.922 355.544 248.078 356.233 248.389C356.922 248.7 357.533 249.122 358.066 249.656L356.766 250.956C356.422 250.578 355.999 250.283 355.499 250.072C355.011 249.861 354.438 249.756 353.783 249.756C353.205 249.756 352.677 249.856 352.199 250.056C351.722 250.256 351.305 250.544 350.949 250.922C350.605 251.289 350.338 251.728 350.149 252.239C349.961 252.75 349.866 253.311 349.866 253.922C349.866 254.533 349.961 255.094 350.149 255.606C350.338 256.117 350.605 256.561 350.949 256.939C351.305 257.306 351.722 257.589 352.199 257.789C352.677 257.989 353.205 258.089 353.783 258.089C354.494 258.089 355.094 257.983 355.583 257.772C356.083 257.55 356.505 257.25 356.849 256.872L358.149 258.172C357.616 258.717 356.988 259.144 356.266 259.456C355.544 259.767 354.716 259.922 353.783 259.922ZM362.549 259.756V248.422H364.466V259.756H362.549ZM358.749 249.839V248.089H368.266V249.839H358.749ZM374.52 259.922C373.687 259.922 372.909 259.767 372.187 259.456C371.464 259.144 370.831 258.717 370.287 258.172C369.742 257.617 369.314 256.978 369.003 256.256C368.703 255.522 368.553 254.739 368.553 253.906C368.553 253.072 368.703 252.294 369.003 251.572C369.314 250.85 369.737 250.217 370.27 249.672C370.814 249.117 371.442 248.689 372.153 248.389C372.876 248.078 373.653 247.922 374.487 247.922C375.32 247.922 376.092 248.078 376.803 248.389C377.526 248.689 378.159 249.117 378.703 249.672C379.248 250.217 379.67 250.856 379.97 251.589C380.281 252.311 380.437 253.089 380.437 253.922C380.437 254.756 380.281 255.539 379.97 256.272C379.67 256.994 379.248 257.628 378.703 258.172C378.17 258.717 377.542 259.144 376.82 259.456C376.109 259.767 375.342 259.922 374.52 259.922ZM374.487 258.089C375.276 258.089 375.964 257.911 376.553 257.556C377.153 257.2 377.62 256.711 377.953 256.089C378.298 255.456 378.47 254.728 378.47 253.906C378.47 253.294 378.37 252.739 378.17 252.239C377.981 251.728 377.709 251.289 377.353 250.922C376.998 250.544 376.576 250.256 376.087 250.056C375.609 249.856 375.076 249.756 374.487 249.756C373.709 249.756 373.02 249.933 372.42 250.289C371.831 250.633 371.364 251.117 371.02 251.739C370.687 252.361 370.52 253.083 370.52 253.906C370.52 254.517 370.614 255.083 370.803 255.606C371.003 256.117 371.276 256.556 371.62 256.922C371.976 257.289 372.398 257.578 372.887 257.789C373.376 257.989 373.909 258.089 374.487 258.089ZM383.702 254.806V253.222H386.652C387.241 253.222 387.697 253.072 388.019 252.772C388.352 252.461 388.519 252.033 388.519 251.489C388.519 251 388.358 250.589 388.036 250.256C387.714 249.922 387.258 249.756 386.669 249.756H383.702V248.089H386.752C387.486 248.089 388.13 248.239 388.686 248.539C389.241 248.828 389.669 249.228 389.969 249.739C390.28 250.239 390.436 250.811 390.436 251.456C390.436 252.133 390.28 252.722 389.969 253.222C389.669 253.722 389.241 254.111 388.686 254.389C388.13 254.667 387.486 254.806 386.752 254.806H383.702ZM382.386 259.756V248.089H384.302V259.756H382.386ZM388.786 259.756L384.702 254.689L386.486 254.039L391.202 259.756H388.786ZM392.623 259.756V248.089H394.54V259.756H392.623ZM396.2 259.756L401 248.089H402.333L407.1 259.756H405.033L401.3 250.306H402L398.233 259.756H396.2ZM398.567 257.506V255.839H404.75V257.506H398.567ZM412.951 255.356V253.689H415.867C416.267 253.689 416.617 253.611 416.917 253.456C417.228 253.289 417.473 253.061 417.651 252.772C417.828 252.472 417.917 252.122 417.917 251.722C417.917 251.322 417.828 250.978 417.651 250.689C417.473 250.389 417.228 250.161 416.917 250.006C416.617 249.839 416.267 249.756 415.867 249.756H412.951V248.089H415.967C416.701 248.089 417.356 248.239 417.934 248.539C418.523 248.839 418.984 249.261 419.317 249.806C419.662 250.35 419.834 250.989 419.834 251.722C419.834 252.456 419.662 253.094 419.317 253.639C418.984 254.183 418.523 254.606 417.934 254.906C417.356 255.206 416.701 255.356 415.967 255.356H412.951ZM411.634 259.756V248.089H413.551V259.756H411.634ZM419.752 259.756L424.552 248.089H425.885L430.652 259.756H428.585L424.852 250.306H425.552L421.785 259.756H419.752ZM422.118 257.506V255.839H428.302V257.506H422.118ZM433.507 254.806V253.222H436.457C437.046 253.222 437.502 253.072 437.824 252.772C438.157 252.461 438.324 252.033 438.324 251.489C438.324 251 438.163 250.589 437.84 250.256C437.518 249.922 437.063 249.756 436.474 249.756H433.507V248.089H436.557C437.29 248.089 437.935 248.239 438.49 248.539C439.046 248.828 439.474 249.228 439.774 249.739C440.085 250.239 440.24 250.811 440.24 251.456C440.24 252.133 440.085 252.722 439.774 253.222C439.474 253.722 439.046 254.111 438.49 254.389C437.935 254.667 437.29 254.806 436.557 254.806H433.507ZM432.19 259.756V248.089H434.107V259.756H432.19ZM438.59 259.756L434.507 254.689L436.29 254.039L441.007 259.756H438.59ZM449.478 259.756L444.078 253.672L449.361 248.089H451.811L445.978 254.156V253.106L451.978 259.756H449.478ZM442.428 259.756V248.089H444.345V259.756H442.428Z" fill="#1A1A1A"/>
<path d="M237.397 433.144C236.585 432.707 235.974 432.19 235.565 431.591C235.155 430.992 234.877 430.288 234.733 429.478L236.493 428.949C236.556 429.512 236.72 430.017 236.985 430.462C237.255 430.898 237.694 431.279 238.301 431.605C238.868 431.91 239.382 432.035 239.841 431.979C240.309 431.928 240.654 431.697 240.875 431.286C241.06 430.944 241.121 430.618 241.061 430.308C241.001 429.998 240.861 429.695 240.641 429.4C240.436 429.101 240.186 428.803 239.892 428.506C239.612 428.204 239.333 427.89 239.055 427.563C238.791 427.233 238.571 426.88 238.393 426.507C238.225 426.139 238.145 425.737 238.153 425.3C238.161 424.862 238.307 424.38 238.591 423.851C238.917 423.244 239.341 422.81 239.86 422.547C240.395 422.279 240.978 422.17 241.608 422.218C242.238 422.267 242.866 422.46 243.492 422.796C244.167 423.159 244.698 423.615 245.084 424.164C245.48 424.717 245.734 425.289 245.846 425.879L244.085 426.408C243.971 425.918 243.794 425.507 243.555 425.177C243.332 424.842 243.014 424.564 242.603 424.343C242.094 424.07 241.638 423.957 241.234 424.004C240.84 424.057 240.542 424.27 240.342 424.641C240.174 424.955 240.125 425.256 240.196 425.547C240.272 425.827 240.415 426.113 240.626 426.402C240.851 426.687 241.103 426.981 241.382 427.282C241.671 427.589 241.948 427.908 242.211 428.239C242.485 428.575 242.7 428.937 242.858 429.325C243.03 429.708 243.107 430.127 243.089 430.584C243.07 431.041 242.913 431.543 242.619 432.091C242.124 433.011 241.404 433.564 240.459 433.75C239.524 433.941 238.503 433.739 237.397 433.144ZM242.77 435.844L248.296 425.569L249.984 426.477L244.459 436.752L242.77 435.844ZM243.93 436.468L244.759 434.927L250.513 438.021L249.684 439.562L243.93 436.468ZM246.353 431.962L247.151 430.479L252.406 433.305L251.608 434.787L246.353 431.962ZM248.627 427.734L249.456 426.193L255.136 429.248L254.308 430.789L248.627 427.734ZM254.071 441.921L256.22 429.831L257.879 430.723L256.164 440L255.723 439.763L262.459 433.185L263.633 433.817L261.859 443.063L261.419 442.826L268.213 436.28L269.872 437.172L260.97 445.631L259.796 445L261.547 435.761L261.987 435.997L255.245 442.553L254.071 441.921ZM263.853 447.182L273.606 439.18L274.781 439.812L273.453 452.344L271.633 451.366L272.821 441.275L273.437 441.606L265.644 448.145L263.853 447.182ZM267.003 446.321L267.793 444.853L273.239 447.782L272.449 449.25L267.003 446.321ZM278.313 449.337L279.063 447.943L281.661 449.34C282.179 449.619 282.652 449.703 283.078 449.591C283.518 449.475 283.868 449.177 284.126 448.698C284.357 448.267 284.41 447.829 284.284 447.382C284.158 446.936 283.836 446.574 283.317 446.295L280.704 444.89L281.494 443.422L284.18 444.866C284.826 445.214 285.322 445.651 285.67 446.178C286.022 446.696 286.209 447.251 286.232 447.843C286.269 448.431 286.135 449.008 285.83 449.576C285.509 450.173 285.093 450.618 284.582 450.911C284.081 451.209 283.52 451.349 282.899 451.331C282.278 451.312 281.645 451.129 280.999 450.782L278.313 449.337ZM274.809 453.073L280.334 442.798L282.022 443.706L276.497 453.981L274.809 453.073ZM280.445 456.105L279.249 449.708L281.127 449.98L282.574 457.249L280.445 456.105ZM284.985 458.546L285.814 457.004L288.515 458.457C289.219 458.836 289.917 459.016 290.609 458.996C291.31 458.983 291.952 458.785 292.535 458.405C293.133 458.02 293.624 457.471 294.009 456.756C294.388 456.052 294.57 455.349 294.556 454.647C294.542 453.946 294.348 453.299 293.973 452.706C293.607 452.119 293.077 451.638 292.382 451.264L289.682 449.812L290.51 448.271L293.255 449.747C293.999 450.147 294.618 450.65 295.112 451.256C295.611 451.853 295.969 452.512 296.186 453.234C296.419 453.952 296.498 454.695 296.426 455.464C296.359 456.222 296.128 456.968 295.733 457.702C295.343 458.426 294.848 459.031 294.247 459.515C293.646 459.999 292.984 460.35 292.262 460.567C291.545 460.774 290.798 460.839 290.019 460.761C289.246 460.673 288.493 460.432 287.759 460.038L284.985 458.546ZM283.825 457.922L289.351 447.647L291.039 448.555L285.513 458.83L283.825 457.922ZM297.474 465.451C296.662 465.015 296.051 464.497 295.641 463.898C295.232 463.299 294.954 462.595 294.809 461.785L296.57 461.256C296.633 461.82 296.797 462.324 297.062 462.77C297.332 463.205 297.771 463.586 298.378 463.912C298.945 464.218 299.459 464.342 299.918 464.286C300.386 464.236 300.731 464.005 300.952 463.594C301.136 463.251 301.198 462.925 301.138 462.615C301.078 462.305 300.938 462.003 300.718 461.708C300.513 461.408 300.263 461.11 299.969 460.813C299.689 460.511 299.41 460.197 299.132 459.871C298.868 459.54 298.648 459.188 298.47 458.815C298.302 458.447 298.222 458.044 298.23 457.607C298.238 457.17 298.384 456.687 298.668 456.158C298.994 455.552 299.417 455.117 299.937 454.854C300.472 454.586 301.055 454.477 301.685 454.526C302.314 454.574 302.943 454.767 303.569 455.104C304.244 455.467 304.775 455.923 305.161 456.471C305.557 457.025 305.811 457.596 305.923 458.186L304.162 458.716C304.048 458.225 303.871 457.815 303.632 457.484C303.409 457.15 303.091 456.872 302.68 456.651C302.171 456.377 301.715 456.264 301.311 456.312C300.916 456.365 300.619 456.577 300.419 456.949C300.251 457.262 300.202 457.564 300.273 457.854C300.349 458.135 300.492 458.42 300.702 458.71C300.928 458.995 301.18 459.288 301.459 459.59C301.748 459.896 302.025 460.215 302.288 460.546C302.562 460.883 302.777 461.244 302.935 461.632C303.107 462.015 303.184 462.435 303.166 462.892C303.147 463.348 302.99 463.851 302.696 464.399C302.201 465.319 301.481 465.871 300.536 466.057C299.601 466.248 298.58 466.046 297.474 465.451ZM304.986 469.302L310.354 459.32L312.042 460.228L306.675 470.21L304.986 469.302ZM306.336 458.768L307.165 457.227L315.547 461.734L314.718 463.276L306.336 458.768ZM315.451 475.119C314.717 474.724 314.105 474.218 313.617 473.602C313.128 472.986 312.773 472.31 312.551 471.572C312.335 470.825 312.261 470.06 312.329 469.276C312.412 468.488 312.651 467.727 313.045 466.994C313.44 466.26 313.941 465.646 314.547 465.152C315.163 464.663 315.835 464.305 316.562 464.078C317.305 463.847 318.06 463.767 318.829 463.84C319.612 463.908 320.371 464.139 321.105 464.534C321.839 464.929 322.445 465.431 322.924 466.042C323.418 466.649 323.773 467.325 323.99 468.072C324.211 468.81 324.281 469.572 324.198 470.36C324.13 471.144 323.898 471.902 323.503 472.636C323.109 473.37 322.601 473.987 321.979 474.485C321.373 474.979 320.701 475.337 319.964 475.559C319.236 475.785 318.481 475.865 317.697 475.797C316.924 475.734 316.175 475.508 315.451 475.119ZM316.29 473.488C316.985 473.862 317.675 474.031 318.362 473.997C319.059 473.968 319.702 473.759 320.29 473.369C320.893 472.974 321.39 472.414 321.779 471.69C322.069 471.152 322.244 470.615 322.304 470.08C322.38 469.541 322.348 469.025 322.209 468.534C322.075 468.033 321.84 467.578 321.504 467.171C321.178 466.768 320.755 466.428 320.237 466.149C319.552 465.78 318.861 465.611 318.164 465.64C317.482 465.664 316.842 465.869 316.244 466.254C315.656 466.644 315.167 467.201 314.778 467.925C314.488 468.463 314.303 469.007 314.222 469.556C314.156 470.101 314.188 470.617 314.318 471.103C314.457 471.594 314.692 472.049 315.023 472.466C315.359 472.874 315.781 473.214 316.29 473.488ZM322.457 478.697L327.983 468.422L329.157 469.053L328.629 471.267L324.145 479.605L322.457 478.697ZM329.576 482.526L327.744 471.189L329.157 469.053L330.99 480.39L329.576 482.526ZM329.576 482.526L330.034 480.444L334.588 471.974L336.276 472.882L330.751 483.157L329.576 482.526ZM332.979 484.355L338.505 474.08L340.193 474.988L334.667 485.263L332.979 484.355ZM334.139 484.979L334.967 483.438L340.722 486.532L339.893 488.073L334.139 484.979ZM336.562 480.473L337.359 478.99L342.614 481.816L341.817 483.299L336.562 480.473ZM338.835 476.245L339.664 474.704L345.345 477.759L344.516 479.3L338.835 476.245ZM348.08 486.856L348.83 485.461L351.428 486.858C351.947 487.137 352.419 487.221 352.845 487.109C353.286 486.993 353.635 486.695 353.893 486.216C354.124 485.785 354.177 485.347 354.051 484.901C353.925 484.455 353.603 484.092 353.084 483.813L350.472 482.408L351.261 480.94L353.947 482.385C354.593 482.732 355.09 483.169 355.437 483.697C355.789 484.214 355.977 484.769 355.999 485.361C356.036 485.949 355.902 486.527 355.597 487.094C355.276 487.691 354.86 488.136 354.349 488.429C353.848 488.728 353.287 488.867 352.666 488.849C352.045 488.831 351.412 488.648 350.766 488.3L348.08 486.856ZM344.576 490.592L350.101 480.317L351.789 481.224L346.264 491.5L344.576 490.592ZM350.212 493.623L349.016 487.227L350.894 487.499L352.341 494.768L350.212 493.623ZM358.111 498.06C357.377 497.665 356.766 497.16 356.277 496.544C355.788 495.928 355.433 495.251 355.211 494.513C354.995 493.766 354.921 493.001 354.989 492.218C355.072 491.43 355.311 490.669 355.706 489.935C356.1 489.201 356.601 488.587 357.207 488.093C357.823 487.604 358.495 487.246 359.223 487.019C359.965 486.788 360.721 486.709 361.489 486.781C362.272 486.849 363.031 487.081 363.765 487.475C364.499 487.87 365.105 488.373 365.584 488.983C366.078 489.59 366.434 490.266 366.65 491.014C366.872 491.751 366.941 492.514 366.858 493.302C366.79 494.085 366.558 494.844 366.164 495.578C365.769 496.312 365.261 496.928 364.64 497.426C364.033 497.92 363.362 498.278 362.624 498.5C361.897 498.727 361.141 498.806 360.358 498.738C359.584 498.675 358.835 498.449 358.111 498.06ZM358.95 496.429C359.645 496.803 360.336 496.973 361.023 496.938C361.72 496.909 362.362 496.7 362.95 496.31C363.554 495.915 364.05 495.356 364.439 494.631C364.729 494.093 364.904 493.557 364.965 493.022C365.04 492.482 365.008 491.966 364.869 491.475C364.735 490.974 364.5 490.52 364.164 490.112C363.838 489.709 363.415 489.369 362.897 489.09C362.212 488.721 361.521 488.552 360.824 488.581C360.142 488.605 359.502 488.81 358.904 489.195C358.316 489.585 357.827 490.142 357.438 490.866C357.148 491.404 356.963 491.948 356.882 492.498C356.816 493.042 356.848 493.558 356.978 494.044C357.117 494.535 357.352 494.99 357.683 495.407C358.019 495.815 358.441 496.156 358.95 496.429ZM363.623 500.835L373.376 492.833L374.551 493.464L373.223 505.997L371.403 505.018L372.591 494.927L373.207 495.259L365.414 501.798L363.623 500.835ZM366.773 499.974L367.563 498.506L373.008 501.435L372.219 502.903L366.773 499.974ZM375.738 507.35L376.567 505.808L379.268 507.261C379.972 507.64 380.67 507.82 381.362 507.8C382.063 507.787 382.706 507.589 383.289 507.209C383.887 506.824 384.378 506.275 384.762 505.56C385.141 504.856 385.323 504.153 385.309 503.451C385.295 502.75 385.101 502.103 384.726 501.51C384.361 500.923 383.831 500.442 383.136 500.068L380.435 498.616L381.264 497.075L384.009 498.551C384.752 498.951 385.371 499.454 385.865 500.06C386.364 500.657 386.723 501.316 386.94 502.038C387.172 502.756 387.252 503.499 387.179 504.268C387.112 505.026 386.881 505.772 386.486 506.506C386.097 507.23 385.601 507.835 385 508.319C384.399 508.803 383.738 509.154 383.015 509.371C382.298 509.578 381.551 509.643 380.773 509.565C380 509.477 379.246 509.236 378.512 508.842L375.738 507.35ZM374.578 506.726L380.104 496.451L381.792 497.359L376.266 507.634L374.578 506.726Z" fill="#1A1A1A"/>
<path d="M808.218 115.205L803.425 104.568L804.64 104.02L812.342 109.306L811.552 109.662L812.694 100.391L813.909 99.8434L818.703 110.48L816.955 111.267L813.545 103.7L813.988 103.629L813.137 110.502L811.921 111.05L806.208 107.134L806.555 106.85L809.965 114.417L808.218 115.205ZM825.97 107.388C825.211 107.73 824.438 107.908 823.651 107.921C822.865 107.934 822.112 107.804 821.392 107.531C820.667 107.249 820.015 106.842 819.434 106.311C818.86 105.766 818.401 105.113 818.059 104.354C817.716 103.594 817.534 102.823 817.51 102.041C817.497 101.255 817.622 100.504 817.885 99.7888C818.153 99.0586 818.549 98.4107 819.074 97.845C819.605 97.2647 820.25 96.8033 821.01 96.4609C821.77 96.1186 822.538 95.9431 823.314 95.9346C824.096 95.9114 824.849 96.0412 825.573 96.324C826.293 96.5967 826.941 97.0058 827.516 97.5511C828.096 98.0817 828.557 98.7269 828.9 99.4867C829.242 100.246 829.422 101.025 829.44 101.821C829.463 102.603 829.338 103.354 829.065 104.074C828.803 104.789 828.406 105.437 827.876 106.017C827.355 106.593 826.72 107.05 825.97 107.388ZM825.187 105.73C825.906 105.406 826.461 104.961 826.852 104.395C827.253 103.824 827.478 103.187 827.526 102.482C827.58 101.763 827.438 101.029 827.1 100.279C826.849 99.7223 826.529 99.2569 826.142 98.8832C825.759 98.4948 825.331 98.2065 824.856 98.0183C824.377 97.82 823.873 97.7301 823.345 97.7486C822.827 97.7625 822.3 97.8905 821.763 98.1324C821.054 98.4519 820.499 98.897 820.098 99.4677C819.703 100.024 819.476 100.656 819.417 101.365C819.369 102.069 819.514 102.796 819.852 103.546C820.103 104.103 820.422 104.581 820.809 104.979C821.201 105.363 821.629 105.651 822.094 105.844C822.569 106.032 823.072 106.122 823.605 106.114C824.133 106.095 824.66 105.967 825.187 105.73ZM832.24 98.9503L831.59 97.5068L834.279 96.2948C834.816 96.0529 835.17 95.7289 835.34 95.3231C835.516 94.9025 835.492 94.444 835.269 93.9476C835.068 93.5019 834.752 93.1933 834.321 93.0217C833.891 92.8502 833.407 92.8854 832.87 93.1274L830.165 94.3462L829.481 92.8267L832.261 91.5736C832.93 91.2723 833.579 91.1443 834.209 91.1896C834.834 91.2247 835.388 91.4137 835.872 91.7564C836.361 92.0844 836.738 92.5422 837.003 93.1298C837.281 93.7477 837.381 94.3485 837.303 94.9322C837.235 95.5113 837.005 96.0416 836.612 96.5231C836.22 97.0046 835.689 97.396 835.021 97.6973L832.24 98.9503ZM833.073 104.004L828.28 93.3676L830.028 92.5802L834.821 103.217L833.073 104.004ZM838.908 101.375L833.104 98.4331L834.463 97.1078L841.111 100.382L838.908 101.375ZM841.8 95.2457L841.115 93.7262L843.774 92.5279C844.139 92.3636 844.426 92.1489 844.636 91.8838C844.851 91.604 844.98 91.2959 845.023 90.9595C845.062 90.613 844.999 90.2574 844.835 89.8927C844.671 89.528 844.448 89.2505 844.167 89.0601C843.882 88.8597 843.566 88.7524 843.218 88.7384C842.876 88.7097 842.523 88.7775 842.158 88.9419L839.499 90.1402L838.814 88.6206L841.565 87.3813C842.233 87.08 842.892 86.9474 843.542 86.9836C844.203 87.0151 844.796 87.2106 845.324 87.5701C845.862 87.9249 846.281 88.4366 846.583 89.1052C846.884 89.7738 846.989 90.4271 846.899 91.0649C846.819 91.6983 846.572 92.2726 846.158 92.7881C845.755 93.299 845.219 93.7051 844.55 94.0064L841.8 95.2457ZM842.407 99.7982L837.614 89.1616L839.361 88.3741L844.154 99.0107L842.407 99.7982ZM851.459 95.7192L846.666 85.0826L848.413 84.2952L853.206 94.9317L851.459 95.7192ZM852.659 95.1783L851.94 93.5828L857.897 90.8986L858.616 92.4941L852.659 95.1783ZM850.557 90.5133L849.865 88.9786L855.305 86.5273L855.997 88.062L850.557 90.5133ZM848.585 86.1372L847.866 84.5417L853.747 81.8917L854.466 83.4872L848.585 86.1372ZM862.725 90.6424L858.069 80.3097L859.816 79.5222L864.472 89.8549L862.725 90.6424ZM855.186 83.1625L854.467 81.567L863.144 77.6571L863.863 79.2526L855.186 83.1625ZM869.458 87.608L864.665 76.9714L866.413 76.184L871.206 86.8206L869.458 87.608ZM876.22 84.561L871.427 73.9244L873.175 73.1369L877.968 83.7735L876.22 84.561ZM868.536 82.3566L867.817 80.7611L873.759 78.0838L874.477 79.6793L868.536 82.3566ZM882.485 76.3086L881.834 74.8651L884.524 73.6531C885.061 73.4112 885.414 73.0872 885.585 72.6813C885.761 72.2608 885.737 71.8023 885.514 71.3059C885.313 70.8602 884.997 70.5516 884.566 70.38C884.136 70.2085 883.652 70.2437 883.115 70.4857L880.41 71.7045L879.725 70.185L882.506 68.9319C883.175 68.6306 883.824 68.5026 884.454 68.5479C885.079 68.583 885.633 68.772 886.117 69.1147C886.606 69.4427 886.983 69.9005 887.247 70.4881C887.526 71.106 887.626 71.7068 887.548 72.2905C887.48 72.8696 887.249 73.3999 886.857 73.8814C886.465 74.3629 885.934 74.7543 885.266 75.0556L882.485 76.3086ZM883.318 81.3625L878.525 70.7259L880.272 69.9385L885.066 80.5751L883.318 81.3625ZM889.153 78.7331L883.349 75.7914L884.707 74.4661L891.356 77.7403L889.153 78.7331ZM897.48 75.1638C896.72 75.5061 895.947 75.6839 895.16 75.6969C894.374 75.71 893.621 75.5802 892.901 75.3075C892.176 75.0247 891.524 74.6179 890.944 74.0873C890.369 73.542 889.91 72.8894 889.568 72.1297C889.225 71.3699 889.043 70.5992 889.019 69.8175C889.006 69.0312 889.131 68.2803 889.394 67.5648C889.662 66.8347 890.058 66.1867 890.583 65.6211C891.114 65.0407 891.759 64.5793 892.519 64.237C893.279 63.8946 894.047 63.7192 894.823 63.7107C895.605 63.6874 896.358 63.8173 897.082 64.1001C897.802 64.3728 898.45 64.7818 899.025 65.3271C899.605 65.8578 900.066 66.503 900.409 67.2627C900.751 68.0225 900.931 68.8005 900.949 69.5969C900.972 70.3787 900.847 71.1295 900.575 71.8496C900.312 72.5651 899.915 73.213 899.385 73.7934C898.864 74.3692 898.229 74.826 897.48 75.1638ZM896.696 73.506C897.415 73.1819 897.97 72.7368 898.361 72.1707C898.762 71.6 898.987 70.9626 899.035 70.2583C899.089 69.5394 898.947 68.8051 898.609 68.0555C898.358 67.4983 898.038 67.0329 897.651 66.6592C897.268 66.2709 896.84 65.9826 896.365 65.7943C895.886 65.596 895.382 65.5061 894.854 65.5246C894.336 65.5386 893.809 65.6665 893.272 65.9084C892.563 66.228 892.008 66.6731 891.607 67.2437C891.212 67.7997 890.985 68.4321 890.927 69.1409C890.878 69.8451 891.023 70.5721 891.361 71.3217C891.612 71.8788 891.931 72.3567 892.318 72.7552C892.71 73.139 893.138 73.4273 893.603 73.6201C894.078 73.8083 894.581 73.8982 895.114 73.8898C895.642 73.8713 896.169 73.7434 896.696 73.506ZM903.035 72.4773L902.618 59.8687L903.834 59.3209L912.973 67.9992L911.089 68.8482L903.803 61.7664L904.441 61.4788L904.889 71.642L903.035 72.4773ZM904.269 69.4537L903.584 67.9342L909.221 65.3938L909.906 66.9133L904.269 69.4537ZM915.576 66.826L914.858 65.2305L917.653 63.9706C918.383 63.6419 918.95 63.1973 919.356 62.6368C919.771 62.0717 920.006 61.4421 920.058 60.748C920.117 60.0392 919.979 59.315 919.646 58.5755C919.318 57.8462 918.871 57.2736 918.306 56.858C917.74 56.4424 917.109 56.2031 916.41 56.1401C915.721 56.0726 915.017 56.2009 914.298 56.525L911.502 57.7849L910.783 56.1894L913.625 54.9089C914.395 54.562 915.171 54.3769 915.952 54.3537C916.729 54.3204 917.471 54.4373 918.176 54.7044C918.887 54.9569 919.525 55.3456 920.091 55.8707C920.652 56.3856 921.104 57.023 921.446 57.7827C921.784 58.5324 921.962 59.293 921.981 60.0645C921.999 60.8361 921.875 61.5746 921.608 62.2799C921.336 62.9752 920.933 63.6079 920.398 64.1781C919.858 64.7382 919.208 65.1895 918.448 65.5318L915.576 66.826ZM914.376 67.3669L909.583 56.7303L911.33 55.9429L916.123 66.5795L914.376 67.3669Z" fill="#1A1A1A"/>
<path d="M388.359 714.928L380.962 704.708L381.663 703.574L394.093 705.657L393.006 707.415L383.005 705.619L383.373 705.024L389.429 713.198L388.359 714.928ZM387.691 711.731L386.273 710.855L389.526 705.596L390.943 706.472L387.691 711.731ZM391.853 700.914L390.436 700.038L391.97 697.557C392.18 697.217 392.298 696.878 392.324 696.541C392.346 696.189 392.28 695.861 392.128 695.558C391.967 695.249 391.716 694.989 391.376 694.779C391.035 694.569 390.696 694.463 390.356 694.462C390.008 694.456 389.685 694.544 389.39 694.727C389.09 694.894 388.835 695.148 388.625 695.488L387.09 697.969L385.673 697.092L387.26 694.526C387.645 693.903 388.118 693.424 388.677 693.09C389.242 692.747 389.843 692.577 390.482 692.58C391.126 692.574 391.76 692.763 392.384 693.149C393.007 693.535 393.46 694.017 393.742 694.597C394.03 695.166 394.146 695.781 394.092 696.439C394.043 697.089 393.826 697.725 393.44 698.349L391.853 700.914ZM394.903 704.349L384.98 698.212L385.989 696.582L395.911 702.718L394.903 704.349ZM397.076 692.47L395.658 691.594L397.192 689.113C397.403 688.773 397.521 688.434 397.546 688.097C397.568 687.745 397.503 687.417 397.351 687.114C397.189 686.805 396.938 686.546 396.598 686.335C396.258 686.125 395.918 686.019 395.579 686.018C395.23 686.012 394.908 686.1 394.612 686.283C394.312 686.45 394.057 686.704 393.847 687.044L392.313 689.525L390.895 688.648L392.482 686.082C392.868 685.459 393.34 684.98 393.899 684.647C394.464 684.304 395.066 684.133 395.704 684.136C396.349 684.13 396.982 684.319 397.606 684.705C398.23 685.091 398.683 685.573 398.964 686.153C399.252 686.723 399.369 687.337 399.314 687.996C399.265 688.645 399.048 689.281 398.662 689.905L397.076 692.47ZM400.125 695.905L390.203 689.768L391.211 688.138L401.133 694.275L400.125 695.905ZM401.83 683.737L400.484 682.904L402.035 680.396C402.345 679.895 402.457 679.428 402.372 678.997C402.282 678.549 402.006 678.183 401.543 677.896C401.127 677.639 400.693 677.56 400.24 677.659C399.787 677.757 399.406 678.057 399.096 678.558L397.535 681.081L396.118 680.204L397.722 677.61C398.108 676.987 398.575 676.517 399.122 676.203C399.66 675.882 400.225 675.729 400.818 675.743C401.406 675.741 401.975 675.91 402.523 676.249C403.099 676.605 403.518 677.047 403.78 677.575C404.047 678.093 404.153 678.661 404.097 679.28C404.041 679.899 403.82 680.52 403.435 681.143L401.83 683.737ZM405.347 687.461L395.425 681.324L396.433 679.694L406.356 685.831L405.347 687.461ZM408.714 682.018L402.257 682.825L402.642 680.967L409.985 679.962L408.714 682.018ZM413.62 674.402C413.182 675.111 412.641 675.69 411.996 676.141C411.352 676.592 410.655 676.905 409.905 677.082C409.146 677.253 408.378 677.28 407.6 677.165C406.819 677.035 406.073 676.75 405.365 676.312C404.656 675.873 404.073 675.337 403.617 674.702C403.166 674.057 402.85 673.365 402.667 672.625C402.481 671.87 402.448 671.111 402.567 670.348C402.682 669.57 402.959 668.827 403.397 668.118C403.835 667.409 404.374 666.835 405.013 666.393C405.648 665.937 406.345 665.623 407.103 665.453C407.853 665.276 408.618 665.253 409.4 665.383C410.178 665.499 410.921 665.776 411.63 666.214C412.338 666.652 412.923 667.197 413.383 667.847C413.839 668.482 414.156 669.174 414.332 669.924C414.515 670.664 414.549 671.423 414.433 672.2C414.324 672.969 414.053 673.703 413.62 674.402ZM412.044 673.466C412.458 672.795 412.67 672.116 412.677 671.428C412.69 670.731 412.52 670.076 412.166 669.466C411.809 668.84 411.28 668.31 410.581 667.878C410.061 667.556 409.536 667.349 409.006 667.256C408.472 667.148 407.955 667.149 407.456 667.258C406.948 667.362 406.48 667.569 406.053 667.88C405.632 668.181 405.266 668.582 404.956 669.083C404.547 669.744 404.336 670.423 404.323 671.121C404.306 671.803 404.471 672.454 404.819 673.074C405.173 673.685 405.7 674.207 406.399 674.639C406.919 674.961 407.451 675.178 407.994 675.292C408.534 675.391 409.05 675.39 409.543 675.29C410.042 675.181 410.51 674.974 410.947 674.669C411.374 674.358 411.74 673.957 412.044 673.466ZM416.724 669.068L409.326 658.849L410.028 657.715L422.457 659.798L421.37 661.555L411.369 659.76L411.737 659.164L417.793 667.338L416.724 669.068ZM416.055 665.871L414.637 664.995L417.89 659.736L419.307 660.613L416.055 665.871ZM425.828 654.664C425.384 655.382 424.844 655.97 424.209 656.426C423.571 656.867 422.879 657.171 422.136 657.339C421.383 657.5 420.623 657.513 419.857 657.379C419.081 657.239 418.339 656.95 417.63 656.512C416.922 656.073 416.336 655.541 415.874 654.916C415.402 654.284 415.075 653.599 414.893 652.859C414.71 652.119 414.674 651.364 414.783 650.596C414.898 649.818 415.178 649.07 415.622 648.352C416.119 647.549 416.681 646.936 417.308 646.514C417.935 646.092 418.615 645.794 419.35 645.621L419.771 647.41C419.269 647.505 418.796 647.709 418.354 648.023C417.917 648.328 417.526 648.759 417.182 649.316C416.878 649.808 416.685 650.309 416.604 650.821C416.523 651.332 416.549 651.839 416.683 652.34C416.814 652.826 417.047 653.283 417.382 653.713C417.718 654.142 418.145 654.518 418.665 654.839C419.185 655.161 419.712 655.375 420.246 655.484C420.78 655.592 421.298 655.599 421.8 655.505C422.299 655.395 422.759 655.19 423.181 654.889C423.602 654.587 423.965 654.191 424.269 653.7C424.643 653.095 424.869 652.529 424.946 652.002C425.02 651.46 424.987 650.943 424.847 650.452L426.637 650.03C426.819 650.77 426.853 651.529 426.737 652.307C426.622 653.085 426.319 653.87 425.828 654.664ZM428.883 649.408L418.961 643.271L419.969 641.641L429.891 647.778L428.883 649.408ZM432.784 643.1L422.862 636.964L423.87 635.334L433.792 641.47L432.784 643.1ZM425.181 645.571L423.693 644.65L427.121 639.108L428.609 640.028L425.181 645.571ZM433.362 632.756L432.015 631.923L433.567 629.414C433.877 628.913 433.989 628.447 433.903 628.015C433.814 627.568 433.538 627.201 433.075 626.915C432.659 626.658 432.225 626.578 431.772 626.677C431.319 626.776 430.937 627.076 430.628 627.576L429.067 630.099L427.65 629.223L429.254 626.629C429.64 626.005 430.106 625.536 430.654 625.221C431.192 624.901 431.757 624.747 432.349 624.761C432.938 624.759 433.507 624.928 434.055 625.267C434.631 625.624 435.05 626.066 435.312 626.593C435.579 627.111 435.685 627.68 435.629 628.298C435.573 628.917 435.352 629.538 434.966 630.162L433.362 632.756ZM436.879 636.479L426.957 630.343L427.965 628.712L437.887 634.849L436.879 636.479ZM440.246 631.036L433.789 631.844L434.174 629.985L441.517 628.981L440.246 631.036ZM445.152 623.421C444.714 624.129 444.172 624.709 443.528 625.16C442.883 625.61 442.186 625.924 441.437 626.1C440.678 626.271 439.91 626.299 439.132 626.184C438.35 626.053 437.605 625.769 436.896 625.33C436.188 624.892 435.605 624.355 435.149 623.72C434.698 623.076 434.382 622.383 434.199 621.643C434.013 620.888 433.979 620.129 434.098 619.367C434.214 618.589 434.49 617.845 434.929 617.137C435.367 616.428 435.906 615.853 436.544 615.412C437.179 614.956 437.876 614.642 438.635 614.471C439.385 614.294 440.15 614.271 440.932 614.402C441.709 614.517 442.453 614.794 443.161 615.233C443.87 615.671 444.455 616.215 444.915 616.866C445.371 617.501 445.688 618.193 445.864 618.942C446.047 619.682 446.08 620.441 445.965 621.219C445.856 621.987 445.585 622.721 445.152 623.421ZM443.575 622.485C443.99 621.814 444.201 621.134 444.209 620.446C444.222 619.749 444.052 619.095 443.698 618.484C443.34 617.858 442.812 617.329 442.113 616.896C441.593 616.575 441.068 616.368 440.538 616.275C440.003 616.167 439.487 616.167 438.988 616.277C438.48 616.38 438.012 616.588 437.585 616.898C437.163 617.199 436.798 617.6 436.488 618.101C436.079 618.763 435.868 619.442 435.855 620.139C435.838 620.821 436.003 621.472 436.351 622.093C436.705 622.703 437.232 623.225 437.931 623.658C438.451 623.979 438.982 624.197 439.526 624.311C440.066 624.41 440.582 624.409 441.075 624.309C441.574 624.199 442.042 623.992 442.479 623.688C442.906 623.377 443.271 622.976 443.575 622.485ZM448.255 618.086L440.858 607.867L441.559 606.733L453.989 608.816L452.902 610.574L442.901 608.778L443.269 608.183L449.325 616.357L448.255 618.086ZM447.587 614.89L446.169 614.013L449.422 608.755L450.839 609.631L447.587 614.89ZM455.491 606.388L454.003 605.467L455.616 602.859C456.037 602.178 456.258 601.493 456.281 600.801C456.309 600.1 456.152 599.447 455.807 598.842C455.459 598.222 454.94 597.699 454.25 597.272C453.57 596.851 452.879 596.626 452.178 596.598C451.478 596.569 450.82 596.724 450.205 597.063C449.597 597.392 449.085 597.892 448.67 598.563L447.057 601.171L445.569 600.251L447.208 597.6C447.652 596.882 448.192 596.295 448.827 595.838C449.453 595.376 450.132 595.058 450.867 594.885C451.597 594.697 452.344 594.662 453.106 594.781C453.859 594.894 454.59 595.17 455.299 595.608C455.998 596.041 456.571 596.571 457.018 597.201C457.465 597.83 457.775 598.512 457.948 599.246C458.112 599.974 458.131 600.724 458.007 601.496C457.873 602.262 457.586 603 457.148 603.709L455.491 606.388ZM454.798 607.507L444.876 601.37L445.884 599.74L455.807 605.877L454.798 607.507Z" fill="#1A1A1A"/>
<rect width="404" height="46" transform="translate(481.386 213.756)" fill="#FA3737"/>
<path d="M494.236 249.756V223.506H498.548V249.756H494.236ZM497.198 249.756V245.818H511.898V249.756H497.198ZM497.198 238.243V234.456H510.623V238.243H497.198ZM497.198 227.443V223.506H511.711V227.443H497.198ZM527.692 250.131C525.892 250.131 524.192 249.781 522.592 249.081C520.992 248.381 519.592 247.418 518.392 246.193C517.192 244.943 516.242 243.506 515.542 241.881C514.867 240.231 514.53 238.468 514.53 236.593C514.53 234.718 514.867 232.968 515.542 231.343C516.242 229.718 517.192 228.293 518.392 227.068C519.617 225.818 521.042 224.856 522.667 224.181C524.317 223.481 526.092 223.131 527.992 223.131C530.067 223.131 531.992 223.531 533.767 224.331C535.542 225.131 537.03 226.268 538.23 227.743L535.305 230.668C534.53 229.568 533.492 228.731 532.192 228.156C530.892 227.556 529.492 227.256 527.992 227.256C526.192 227.256 524.605 227.656 523.23 228.456C521.88 229.231 520.83 230.318 520.08 231.718C519.33 233.118 518.955 234.743 518.955 236.593C518.955 238.443 519.33 240.081 520.08 241.506C520.855 242.906 521.892 244.006 523.192 244.806C524.492 245.606 525.967 246.006 527.617 246.006C529.367 246.006 530.867 245.693 532.117 245.068C533.392 244.418 534.367 243.468 535.042 242.218C535.717 240.943 536.055 239.381 536.055 237.531L538.755 239.481H527.542V235.543H540.517V236.143C540.517 239.268 539.955 241.868 538.83 243.943C537.73 246.018 536.217 247.568 534.292 248.593C532.367 249.618 530.167 250.131 527.692 250.131ZM556.952 250.131C555.152 250.131 553.452 249.781 551.852 249.081C550.252 248.381 548.852 247.418 547.652 246.193C546.452 244.943 545.502 243.506 544.802 241.881C544.127 240.231 543.79 238.468 543.79 236.593C543.79 234.718 544.127 232.968 544.802 231.343C545.502 229.718 546.452 228.293 547.652 227.068C548.877 225.818 550.302 224.856 551.927 224.181C553.577 223.481 555.352 223.131 557.252 223.131C559.327 223.131 561.252 223.531 563.027 224.331C564.802 225.131 566.29 226.268 567.49 227.743L564.565 230.668C563.79 229.568 562.752 228.731 561.452 228.156C560.152 227.556 558.752 227.256 557.252 227.256C555.452 227.256 553.865 227.656 552.49 228.456C551.14 229.231 550.09 230.318 549.34 231.718C548.59 233.118 548.215 234.743 548.215 236.593C548.215 238.443 548.59 240.081 549.34 241.506C550.115 242.906 551.152 244.006 552.452 244.806C553.752 245.606 555.227 246.006 556.877 246.006C558.627 246.006 560.127 245.693 561.377 245.068C562.652 244.418 563.627 243.468 564.302 242.218C564.977 240.943 565.315 239.381 565.315 237.531L568.015 239.481H556.802V235.543H569.777V236.143C569.777 239.268 569.215 241.868 568.09 243.943C566.99 246.018 565.477 247.568 563.552 248.593C561.627 249.618 559.427 250.131 556.952 250.131ZM581.577 249.756V223.506H585.89V249.756H581.577ZM598.265 249.756V223.506H602.577V249.756H598.265ZM584.54 238.131V234.193H599.202V238.131H584.54ZM618.399 250.131C616.424 250.131 614.649 249.681 613.074 248.781C611.499 247.881 610.249 246.656 609.324 245.106C608.424 243.531 607.974 241.756 607.974 239.781V223.506H612.286V239.743C612.286 241.018 612.549 242.131 613.074 243.081C613.624 244.006 614.361 244.731 615.286 245.256C616.211 245.756 617.249 246.006 618.399 246.006C619.574 246.006 620.611 245.756 621.511 245.256C622.411 244.731 623.124 244.006 623.649 243.081C624.174 242.131 624.436 241.031 624.436 239.781V223.506H628.749V239.818C628.749 241.793 628.299 243.556 627.399 245.106C626.499 246.656 625.274 247.881 623.724 248.781C622.174 249.681 620.399 250.131 618.399 250.131ZM634.165 249.756V223.506H637.165L638.477 228.456V249.756H634.165ZM652.352 249.756L636.64 229.243L637.165 223.506L652.877 244.018L652.352 249.756ZM652.352 249.756L651.04 245.143V223.506H655.352V249.756H652.352ZM667.645 249.756V224.256H671.957V249.756H667.645ZM659.095 227.443V223.506H680.507V227.443H659.095ZM691.184 249.756V223.506H695.496V249.756H691.184ZM694.146 249.756V245.818H707.871V249.756H694.146ZM721.863 250.131C719.988 250.131 718.238 249.781 716.613 249.081C714.988 248.381 713.563 247.418 712.338 246.193C711.113 244.943 710.15 243.506 709.45 241.881C708.775 240.231 708.438 238.468 708.438 236.593C708.438 234.718 708.775 232.968 709.45 231.343C710.15 229.718 711.1 228.293 712.3 227.068C713.525 225.818 714.938 224.856 716.538 224.181C718.163 223.481 719.913 223.131 721.788 223.131C723.663 223.131 725.4 223.481 727 224.181C728.625 224.856 730.05 225.818 731.275 227.068C732.5 228.293 733.45 229.731 734.125 231.381C734.825 233.006 735.175 234.756 735.175 236.631C735.175 238.506 734.825 240.268 734.125 241.918C733.45 243.543 732.5 244.968 731.275 246.193C730.075 247.418 728.663 248.381 727.038 249.081C725.438 249.781 723.713 250.131 721.863 250.131ZM721.788 246.006C723.563 246.006 725.113 245.606 726.438 244.806C727.788 244.006 728.838 242.906 729.588 241.506C730.363 240.081 730.75 238.443 730.75 236.593C730.75 235.218 730.525 233.968 730.075 232.843C729.65 231.693 729.038 230.706 728.238 229.881C727.438 229.031 726.488 228.381 725.388 227.931C724.313 227.481 723.113 227.256 721.788 227.256C720.038 227.256 718.488 227.656 717.138 228.456C715.813 229.231 714.763 230.318 713.988 231.718C713.238 233.118 712.863 234.743 712.863 236.593C712.863 237.968 713.075 239.243 713.5 240.418C713.95 241.568 714.563 242.556 715.338 243.381C716.138 244.206 717.088 244.856 718.188 245.331C719.288 245.781 720.488 246.006 721.788 246.006ZM751.778 250.131C749.878 250.131 748.116 249.793 746.491 249.118C744.891 248.418 743.491 247.456 742.291 246.231C741.091 244.981 740.166 243.543 739.516 241.918C738.866 240.268 738.541 238.506 738.541 236.631C738.541 234.756 738.866 233.006 739.516 231.381C740.166 229.731 741.091 228.293 742.291 227.068C743.491 225.843 744.891 224.881 746.491 224.181C748.116 223.481 749.878 223.131 751.778 223.131C753.903 223.131 755.741 223.481 757.291 224.181C758.841 224.881 760.216 225.831 761.416 227.031L758.491 229.956C757.716 229.106 756.766 228.443 755.641 227.968C754.541 227.493 753.253 227.256 751.778 227.256C750.478 227.256 749.291 227.481 748.216 227.931C747.141 228.381 746.203 229.031 745.403 229.881C744.628 230.706 744.028 231.693 743.603 232.843C743.178 233.993 742.966 235.256 742.966 236.631C742.966 238.006 743.178 239.268 743.603 240.418C744.028 241.568 744.628 242.568 745.403 243.418C746.203 244.243 747.141 244.881 748.216 245.331C749.291 245.781 750.478 246.006 751.778 246.006C753.378 246.006 754.728 245.768 755.828 245.293C756.953 244.793 757.903 244.118 758.678 243.268L761.603 246.193C760.403 247.418 758.991 248.381 757.366 249.081C755.741 249.781 753.878 250.131 751.778 250.131ZM762.842 249.756L773.642 223.506H776.642L787.367 249.756H782.717L774.317 228.493H775.892L767.417 249.756H762.842ZM768.167 244.693V240.943H782.08V244.693H768.167ZM794.097 249.756V224.256H798.41V249.756H794.097ZM785.547 227.443V223.506H806.96V227.443H785.547ZM810.715 249.756V223.506H815.028V249.756H810.715ZM832.788 250.131C830.913 250.131 829.163 249.781 827.538 249.081C825.913 248.381 824.488 247.418 823.263 246.193C822.038 244.943 821.075 243.506 820.375 241.881C819.7 240.231 819.363 238.468 819.363 236.593C819.363 234.718 819.7 232.968 820.375 231.343C821.075 229.718 822.025 228.293 823.225 227.068C824.45 225.818 825.863 224.856 827.463 224.181C829.088 223.481 830.838 223.131 832.713 223.131C834.588 223.131 836.325 223.481 837.925 224.181C839.55 224.856 840.975 225.818 842.2 227.068C843.425 228.293 844.375 229.731 845.05 231.381C845.75 233.006 846.1 234.756 846.1 236.631C846.1 238.506 845.75 240.268 845.05 241.918C844.375 243.543 843.425 244.968 842.2 246.193C841 247.418 839.588 248.381 837.963 249.081C836.363 249.781 834.638 250.131 832.788 250.131ZM832.713 246.006C834.488 246.006 836.038 245.606 837.363 244.806C838.713 244.006 839.763 242.906 840.513 241.506C841.288 240.081 841.675 238.443 841.675 236.593C841.675 235.218 841.45 233.968 841 232.843C840.575 231.693 839.963 230.706 839.163 229.881C838.363 229.031 837.413 228.381 836.313 227.931C835.238 227.481 834.038 227.256 832.713 227.256C830.963 227.256 829.413 227.656 828.063 228.456C826.738 229.231 825.688 230.318 824.913 231.718C824.163 233.118 823.788 234.743 823.788 236.593C823.788 237.968 824 239.243 824.425 240.418C824.875 241.568 825.488 242.556 826.263 243.381C827.063 244.206 828.013 244.856 829.113 245.331C830.213 245.781 831.413 246.006 832.713 246.006ZM850.486 249.756V223.506H853.486L854.798 228.456V249.756H850.486ZM868.673 249.756L852.961 229.243L853.486 223.506L869.198 244.018L868.673 249.756ZM868.673 249.756L867.361 245.143V223.506H871.673V249.756H868.673Z" fill="white"/>
<path d="M698.891 256.618L648.162 350.06" stroke="#FA3737" stroke-width="7.5"/>
<path d="M614.381 325.464L554.082 424.079C553.191 425.536 553.694 427.441 555.188 428.269L587.549 446.182C588.785 446.867 590.343 446.582 591.277 445.521C620.489 412.335 640.465 397.86 678.584 383.937C680.731 383.153 681.292 380.353 679.586 378.833L618.937 324.789C617.54 323.545 615.357 323.868 614.381 325.464Z" fill="white" stroke="#FA3737" stroke-width="3.75"/>
</g>
<defs>
<clipPath id="clip0_370_3">
<rect width="1280" height="720" fill="white"/>
</clipPath>
<clipPath id="clip1_370_3">
<rect width="110" height="110" fill="white" transform="translate(757 390)"/>
</clipPath>
</defs>
</svg>
