<svg width="22" height="23" viewBox="0 0 22 23" fill="none" xmlns="http://www.w3.org/2000/svg">
<path d="M0 11.6243C0 5.54914 4.92487 0.624268 11 0.624268C17.0751 0.624268 22 5.54914 22 11.6243C22 17.6994 17.0751 22.6243 11 22.6243C4.92487 22.6243 0 17.6994 0 11.6243Z" fill="#212529"/>
<path d="M7.2181 12.0662H8.73959V18.1834C8.73959 18.3042 8.83981 18.4021 8.96349 18.4021H11.5432C11.6669 18.4021 11.7671 18.3042 11.7671 18.1834V12.095H13.5162C13.63 12.095 13.7256 12.0116 13.7386 11.9013L14.0043 9.64923C14.0116 9.5873 13.9915 9.5252 13.949 9.47874C13.9065 9.43227 13.8457 9.40563 13.7819 9.40563H11.7672V7.9939C11.7672 7.5683 12.0018 7.35255 12.4646 7.35255C12.5306 7.35255 13.7819 7.35255 13.7819 7.35255C13.9056 7.35255 14.0058 7.25459 14.0058 7.13389V5.06672C14.0058 4.94593 13.9056 4.84805 13.7819 4.84805H11.9665C11.9537 4.84741 11.9253 4.84644 11.8834 4.84644C11.5683 4.84644 10.4734 4.90683 9.60859 5.68386C8.65031 6.54492 8.78352 7.57599 8.81535 7.75475V9.40555H7.2181C7.09442 9.40555 6.9942 9.50343 6.9942 9.62422V11.8475C6.9942 11.9683 7.09442 12.0662 7.2181 12.0662Z" fill="white"/>
</svg>
