<svg width="22" height="23" viewBox="0 0 22 23" fill="none" xmlns="http://www.w3.org/2000/svg">
<path d="M0 11.7322C0 5.65705 4.92487 0.732178 11 0.732178C17.0751 0.732178 22 5.65705 22 11.7322C22 17.8073 17.0751 22.7322 11 22.7322C4.92487 22.7322 0 17.8073 0 11.7322Z" fill="#212529"/>
<path d="M17.7638 8.93136C17.7319 8.2089 17.6151 7.71219 17.4477 7.28185C17.275 6.82501 17.0094 6.41598 16.6613 6.07598C16.3212 5.73068 15.9095 5.46237 15.4578 5.29241C15.0248 5.12506 14.5307 5.00823 13.8081 4.97638C13.0801 4.94183 12.849 4.93384 11.0026 4.93384C9.15625 4.93384 8.92511 4.94183 8.19987 4.97368C7.47728 5.00553 6.98047 5.12246 6.55014 5.28972C6.09313 5.46237 5.68402 5.72796 5.34395 6.07598C4.99859 6.41598 4.73033 6.82766 4.56024 7.27921C4.39286 7.71219 4.276 8.20618 4.24415 8.92864C4.20959 9.65646 4.2016 9.88756 4.2016 11.7336C4.2016 13.5796 4.20959 13.8107 4.24144 14.5358C4.27331 15.2582 4.39026 15.755 4.55765 16.1853C4.73033 16.6421 4.99859 17.0512 5.34395 17.3912C5.68402 17.7365 6.09578 18.0048 6.54742 18.1747C6.98047 18.3421 7.47456 18.4589 8.19723 18.4908C8.92247 18.5227 9.15369 18.5306 11 18.5306C12.8464 18.5306 13.0775 18.5227 13.8028 18.4908C14.5254 18.4589 15.0221 18.3421 15.4525 18.1747C16.3665 17.8214 17.089 17.099 17.4424 16.1853C17.6097 15.7523 17.7267 15.2582 17.7585 14.5358C17.7903 13.8107 17.7983 13.5796 17.7983 11.7336C17.7983 9.88756 17.7956 9.65646 17.7638 8.93136ZM16.5391 14.4827C16.5099 15.1467 16.3983 15.5053 16.3053 15.7444C16.0768 16.3367 15.6066 16.8068 15.0142 17.0353C14.775 17.1283 14.4138 17.2398 13.7523 17.269C13.035 17.3009 12.8198 17.3088 11.0053 17.3088C9.19077 17.3088 8.973 17.3009 8.25826 17.269C7.59414 17.2398 7.23549 17.1283 6.99633 17.0353C6.70151 16.9263 6.4332 16.7537 6.21535 16.5279C5.98957 16.3074 5.81689 16.0418 5.70789 15.747C5.61491 15.508 5.50334 15.1467 5.47418 14.4854C5.44223 13.7682 5.43437 13.553 5.43437 11.7389C5.43437 9.92471 5.44223 9.7069 5.47418 8.99246C5.50334 8.32838 5.61491 7.96987 5.70789 7.73076C5.81689 7.43592 5.98957 7.16766 6.21807 6.94978C6.43849 6.72404 6.70416 6.55139 6.99905 6.44256C7.23821 6.3496 7.5995 6.23805 8.26098 6.20882C8.97829 6.17695 9.19349 6.16894 11.0079 6.16894C12.8251 6.16894 13.0402 6.17695 13.755 6.20882C14.4191 6.23805 14.7778 6.3496 15.0168 6.44256C15.3117 6.55139 15.58 6.72404 15.7979 6.94978C16.0237 7.17031 16.1963 7.43592 16.3053 7.73076C16.3983 7.96987 16.5099 8.33102 16.5391 8.99246C16.571 9.70962 16.579 9.92471 16.579 11.7389C16.579 13.553 16.571 13.7655 16.5391 14.4827Z" fill="white"/>
<path d="M11.0026 8.24097C9.07399 8.24097 7.50916 9.80543 7.50916 11.7338C7.50916 13.6622 9.07399 15.2266 11.0026 15.2266C12.9314 15.2266 14.4961 13.6622 14.4961 11.7338C14.4961 9.80543 12.9314 8.24097 11.0026 8.24097ZM11.0026 13.9995C9.75141 13.9995 8.73649 12.9849 8.73649 11.7338C8.73649 10.4827 9.75141 9.46807 11.0026 9.46807C12.254 9.46807 13.2687 10.4827 13.2687 11.7338C13.2687 12.9849 12.254 13.9995 11.0026 13.9995Z" fill="white"/>
<path d="M15.4497 8.10253C15.4497 8.5528 15.0845 8.91788 14.634 8.91788C14.1836 8.91788 13.8184 8.5528 13.8184 8.10253C13.8184 7.65211 14.1836 7.28711 14.634 7.28711C15.0845 7.28711 15.4497 7.65211 15.4497 8.10253Z" fill="white"/>
</svg>
